<svg width="655" height="660" viewBox="0 0 655 660" fill="none" xmlns="http://www.w3.org/2000/svg">
<path d="M440.145 167.407C443.655 166.584 449.478 164.271 448.431 157.923C447.983 155.011 447.16 151.797 445.817 147.693C442.384 137.167 446.416 125.516 455.598 119.319C461.723 115.215 468.29 110.73 474.488 105.881C494.874 90.1267 501.295 70.4907 494.275 45.8507C487.181 21.0587 459.556 1.49601 435.139 4.18934C433.051 4.4133 430.733 5.08518 427.821 6.27788C424.91 7.47058 422.816 10.0123 422.223 13.0748C421.624 16.0592 422.519 19.0488 424.686 21.2155C428.79 25.3196 433.644 28.0124 438.347 30.6999C440.29 31.8197 442.155 32.8665 443.946 33.9863C455.743 41.3769 461.79 49.5169 461.868 58.1063C461.941 66.7677 456.045 75.0543 444.321 82.8196C439.691 85.8821 434.691 88.4967 429.909 91.0332C426.925 92.601 424.008 94.1687 421.096 95.8144C406.236 104.403 398.919 116.872 398.846 133.97C398.846 144.647 403.476 154.501 411.762 161.148C419.752 167.57 430.054 169.882 440.06 167.57L440.145 167.407Z" fill="white"/>
<path d="M250.345 151.647C254.449 150.975 264.23 148.511 265.501 138.803C266.548 131.038 262.438 125.439 254.6 123.943C246.985 122.527 238.772 119.839 237.428 106.621L237.204 104.678L243.027 99.1519C246.761 95.7196 250.792 91.9071 254.6 87.954C256.688 85.7873 258.855 83.6988 261.021 81.5321C266.995 75.6311 273.193 69.5113 278.048 62.7921C284.47 53.7557 286.782 43.8281 284.845 34.1201C282.605 23.3701 275.137 13.6615 263.788 6.7188C256.397 2.2396 248.553 0 241.017 0C231.085 0 221.605 3.80733 214.288 11.3489C212.272 13.4375 212.345 15.8281 212.569 17.1719C213.017 19.5625 214.512 21.6511 216.751 22.7708L253.563 40.6921L242.141 51.3692C237.511 55.6973 233.631 59.2859 229.745 63.0151C227.881 64.8068 226.011 66.5255 224.146 68.2443C219.443 72.4995 215.037 76.4579 211.527 81.1609C199.282 97.4369 197.787 114.838 207.048 132.833C214.214 146.718 231.985 154.412 250.354 151.65L250.345 151.647Z" fill="white"/>
<path d="M335.171 77.7309L331.364 80.8664C319.494 90.7205 314.041 103.637 314.864 120.366C315.833 140.825 327.109 152.47 347.567 154.268C352.119 154.643 355.853 153.596 358.02 151.283C359.962 149.195 360.707 146.132 360.186 142.398C359.739 139.19 358.098 135.455 355.78 132.544C346.223 120.148 352.942 111.117 359.884 104.617L361.452 103.122C369.738 95.3567 378.327 87.2943 384.9 78.1849C398.114 59.9663 398.936 40.0289 387.213 20.5449C377.134 3.82094 360.035 0.831604 342.489 0.831604H338.53C329.796 1.05556 322.624 6.73267 322.552 13.5972C322.552 20.5399 326.432 24.9461 335.692 28.3839C340.171 30.0245 344.729 31.4464 349.728 32.936C352.119 33.6808 354.655 34.4308 357.27 35.2485L360.405 36.2173L360.03 39.4256C357.718 59.4362 345.618 69.1442 335.014 77.7282L335.171 77.7309Z" fill="white"/>
<path d="M613.891 313.38C601.423 311.885 594.402 306.214 589.771 293.667C585.74 282.766 580.287 271.714 573.641 260.886C564.531 246.026 549.297 238.188 537.13 233.036C529.437 229.75 521.75 226.39 514.057 223.031C493.974 214.219 473.213 205.11 452.234 197.943C415.573 185.474 376.671 186.219 339.114 186.969C329.708 187.193 320.297 187.344 310.963 187.344H309.469C275.719 187.344 231.818 188.537 188.583 197.422C182.161 198.766 175.594 199.813 169.094 200.933C144.974 204.964 122.203 208.771 102.345 223.927C99.1363 226.391 95.1779 227.511 91.3706 228.63C89.355 229.229 87.3394 229.823 85.3966 230.573C81.8862 232.068 78.3029 233.484 74.7195 234.979C64.9383 238.938 54.7822 242.969 45.7502 248.271C42.0939 250.36 39.1043 253.797 35.8961 257.453C32.6878 261.11 29.3231 264.995 25.0679 267.531C12.0002 275.521 7.5946 287.917 4.76126 300.083C-1.58767 327.933 -0.316876 358.099 8.71966 392.521C19.0218 431.797 43.141 465.021 82.4903 494.218C92.7925 501.833 102.949 509.525 113.922 517.811L133.933 532.822L129.527 534.687C126.391 536.03 123.553 537.15 121.016 538.119C116.313 539.983 112.506 541.478 109.147 543.348C105.188 545.588 101.157 547.827 97.1258 549.994C84.7299 556.791 71.9645 563.806 60.6885 572.317C48.3707 581.65 44.4125 596.582 48.8187 617.937C51.5062 631.301 59.2718 648.025 80.6987 651.838C83.6831 652.359 86.5998 652.958 89.5842 653.479C102.948 656.015 116.839 658.63 130.35 658.708L143.714 658.859C196.427 659.307 250.932 659.828 304.327 657.364C346.963 655.421 392.207 651.015 451.047 643.025C478.75 639.291 506.302 631.156 529.52 623.687C539.374 620.551 546.843 614.28 551.026 605.619C555.729 595.765 555.88 583.889 551.401 572.02C539.083 539.541 511.083 530.656 482.635 525.952C478.083 525.207 473.453 524.681 468.447 524.16C465.984 523.863 463.369 523.639 460.682 523.264L456.801 522.817L458.52 519.306C459.192 517.89 459.713 516.692 460.161 515.65C461.057 513.561 461.729 511.843 463.296 510.796C491.744 490.858 512.651 471.744 529.078 450.541C536.098 441.505 545.13 442.552 553.791 444.416C572.682 448.52 589.182 447.552 604.192 441.354C633.984 429.182 649.963 405.067 654.37 365.567C657.578 336.744 642.125 316.733 613.9 313.373L613.891 313.38ZM85.3181 265.52L88.5263 263.953C118.838 248.422 147.734 238.791 176.854 234.458C238.756 225.276 304.537 220.942 377.254 221.166C435.645 221.317 485.224 244.385 530.174 269.249C535.325 272.087 539.508 276.27 544.289 281.119C546.602 283.431 548.992 285.9 551.68 288.363L554.143 290.603L551.456 292.619C528.086 309.869 503.445 313.228 479.549 316.515C475.518 317.035 471.487 317.634 467.455 318.233L465.367 318.53L464.544 316.588C443.117 268.801 403.465 245.505 339.7 243.192C296.393 241.624 250.919 245.879 204.407 255.811C169.016 263.353 144.527 277.317 127.204 299.79C119.063 310.394 108.24 308.603 99.6519 307.259C98.5322 307.108 97.3394 306.884 96.2926 306.738C94.652 306.514 92.9333 306.363 91.1415 306.217C81.2093 305.321 68.8909 304.129 66.0535 291.654C62.6213 276.722 75.8347 270.3 85.4655 265.597L85.3181 265.52ZM421.545 314.275L417.737 315.77C407.211 319.874 376.373 321.817 337.92 321.817C287.223 321.817 223.305 318.457 175.373 312.108L171.045 311.509L173.358 307.853C179.629 297.999 189.336 295.681 197.847 293.665L199.264 293.29C246.154 282.014 297.076 277.312 350.61 279.254C377.116 280.223 399.965 290.978 418.632 311.213L421.392 314.197L421.545 314.275ZM464.925 559.702C478.216 561.493 491.206 565.676 503.451 569.858C506.811 570.978 509.128 573.816 512.113 577.399C513.608 579.191 515.248 581.207 517.342 583.373L520.254 586.436L516.295 587.931C513.087 589.124 510.248 590.243 507.634 591.217C502.556 593.16 498.149 594.873 493.67 596.144C424.68 615.483 355.456 620.41 296.923 622.65C251.376 624.368 213.444 625.264 177.756 625.488H175.668C153.793 625.488 131.392 623.769 111.528 622.202C101.82 621.457 88.5331 620.41 84.4238 601.592L84.0488 599.874L85.4655 598.827C88.08 596.884 90.6165 594.723 93.304 592.478C99.7259 587.103 106.445 581.577 114.211 577.691C130.413 569.629 148.408 562.456 167.747 556.336C176.111 553.722 186.263 555.441 192.987 557.977C251.377 579.78 310.664 579.18 374.28 556.113C381.895 553.352 390.635 553.425 398.92 553.946C422.592 555.441 443.868 556.857 464.999 559.696L464.925 559.702ZM553.851 341.968C552.211 345.849 550.867 349.51 549.523 352.942C546.836 360.036 544.596 366.083 541.013 371.682C491.658 448.516 423.414 501.229 337.986 528.562C319.393 534.536 300.877 537.448 281.986 537.448C266.382 537.448 250.554 535.432 234.35 531.323C169.465 515.047 114.288 481.369 70.3769 431.12C49.0222 406.704 37.6742 368.027 41.4809 332.636L41.7777 329.725L44.6892 330.245C52.4548 331.589 59.9959 333.157 67.5385 334.725C83.8145 338.084 99.1225 341.219 114.804 342.339C181.481 347.12 236.736 349.954 288.631 351.225C346.199 352.641 406.901 352.641 469.244 351.152C483.88 350.777 498.812 347.719 513.223 344.657C520.092 343.24 527.035 341.818 533.905 340.626C536.593 340.178 539.358 339.803 543.239 339.209L555.707 337.417L553.843 341.896L553.851 341.968ZM617.769 370.416C610.972 393.266 597.238 404.838 574.534 406.854L570.206 407.229L576.925 389.083C580.805 378.703 584.242 369.223 587.675 359.739C592.904 344.953 602.237 344.583 609.18 346.823C623.44 351.526 619.336 365.265 617.769 370.495L617.769 370.416Z" fill="white"/>
</svg>
